<?xml version="1.0" encoding="UTF-8"?>
<svg version="1.1" viewBox="0 0 75 75" xmlns="http://www.w3.org/2000/svg">
    <defs>
        <clipPath id="g">
            <path transform="translate(43.622 -51.548)" d="m0 80h79.999v-80h-79.999z"/>
        </clipPath>
        <clipPath id="f">
            <path transform="translate(43.622 -39.121)" d="m0 80h79.999v-80h-79.999z"/>
        </clipPath>
        <clipPath id="e">
            <path transform="translate(-40.148 -60.503)" d="m0 80h79.999v-80h-79.999z"/>
        </clipPath>
        <clipPath id="d">
            <path transform="translate(-62.89 -40.908)" d="m0 80h79.999v-80h-79.999z"/>
        </clipPath>
        <clipPath id="c">
            <path transform="translate(-5.1185 -26.714)" d="m0 80h79.999v-80h-79.999z"/>
        </clipPath>
        <clipPath id="b">
            <path transform="translate(-74.99 -51.348)" d="m0 80h79.999v-80h-79.999z"/>
        </clipPath>
        <clipPath id="a">
            <path transform="translate(-74.868 -28.752)" d="m0 80h79.999v-80h-79.999z"/>
        </clipPath>
    </defs>
    <ellipse cx="37.5" cy="37.5" rx="37.5" ry="37.5" fill="#fff"/>
    <g transform="matrix(1.0036 0 0 1.0036 -.13429 -.5775)">
        <g transform="matrix(4.1962 0 0 4.1962 -4.4666 -4.1031)">
            <path transform="matrix(.21382 0 0 -.21382 -7.8795 7.5503)" d="m0 0c2.647-0.01 5.295-0.029 7.942-0.029 15.926-2e-3 31.851-0.053 47.775 0.045 3.298 0.021 6.615 0.458 9.881 0.968 2.358 0.368 4.531 0.321 6.591-0.95 2.712-1.672 5.421-3.347 8.316-5.135-0.544-0.325-0.899-0.59-1.294-0.766-5.293-2.356-10.836-3.911-16.587-4.413-4.993-0.435-10.025-0.548-15.041-0.572-14.887-0.07-29.775-0.028-44.663-0.022-0.973 0-1.947 0.06-2.92 0.092z" clip-path="url(#g)" fill="#e30613"/>
            <path transform="matrix(.21382 0 0 -.21382 -7.8795 10.207)" d="m0 0c18.512 0.048 37.025 0.143 55.537 0.116 6.23-9e-3 12.369-0.942 18.305-2.905 2.129-0.704 4.181-1.64 6.266-2.476 0.129-0.052 0.236-0.16 0.499-0.345-3.383-1.966-6.636-3.908-9.944-5.751-1.192-0.664-2.564-0.786-3.91-0.465-4.656 1.107-9.391 1.3-14.146 1.299-17.143-5e-3 -34.286-8e-3 -51.429-6e-3 -0.393 0-0.785 0.076-1.178 0.116v10.417" clip-path="url(#f)" fill="#e30613"/>
            <path transform="matrix(.21382 0 0 -.21382 10.033 5.6354)" d="m0 0c0.188 0.229 0.284 0.427 0.442 0.526 4.351 2.726 9.025 4.392 14.232 4.054 5.819-0.377 10.795-2.598 14.528-7.181 3.215-3.946 4.923-8.564 5.582-13.573 0.778-5.922 0.194-11.733-2.401-17.125-3.41-7.085-8.941-11.442-17.008-12.221-4.735-0.457-9.03 0.762-13.11 3.028-0.713 0.396-1.43 0.786-2.448 1.345 0.324 0.175 0.54 0.272 0.734 0.399 3.736 2.451 7.678 4.457 12.034 5.555 0.643 0.162 1.326 0.167 1.991 0.242 3.72 0.424 6.433 2.283 7.953 5.727 2.693 6.106 2.619 12.185-0.501 18.11-1.228 2.332-3.202 3.997-5.749 4.792-0.995 0.311-2.114 0.195-3.149 0.407-3.219 0.661-6.169 2.042-9.053 3.562-1.34 0.706-2.628 1.512-4.077 2.353" clip-path="url(#e)" fill="#e30613"/>
            <path transform="matrix(.21382 0 0 -.21382 14.895 9.8252)" d="m0 0c-1.442 0.102-2.818 0.098-4.158 0.315-3.32 0.539-6.634 1.125-9.927 1.805-1.447 0.298-2.918 0.704-4.236 1.351-3.374 1.656-6.827 3.148-9.964 5.295-2.346 1.605-4.882 2.974-7.455 4.192-2.057 0.973-4.287 0.778-6.525 0.27s-4.532-0.891-6.82-1.028c-2.881-0.173-5.78-0.042-8.838-0.042 0.314 0.664 0.528 1.284 0.873 1.821 1.79 2.785 3.864 5.304 6.734 7.07 4.03 2.48 8.386 3.388 13.093 2.969 4.413-0.392 8.219-2.218 11.875-4.551 4.251-2.714 8.429-5.603 13.396-6.917 1.904-0.504 3.854-0.834 5.786-1.226 1.61-0.327 2.722-1.355 3.556-2.659 1.65-2.583 2.567-5.416 2.61-8.665" clip-path="url(#d)" fill="#184189"/>
            <path transform="matrix(.21382 0 0 -.21382 2.5424 12.86)" d="m0 0c0.354 0.035 0.708 0.105 1.062 0.1 3.589-0.048 7.18-0.068 10.767-0.192 1.079-0.037 2.198-0.235 3.213-0.598 3.731-1.334 7.06-0.329 10.251 1.596 2.786 1.682 5.496 3.495 8.328 5.092 5.79 3.265 12.019 5.206 18.648 5.833 1.542 0.146 3.079 0.349 4.62 0.513 0.295 0.032 0.596 5e-3 0.968 5e-3 -0.364-3.469-1.027-6.727-3.327-9.419-0.846-0.99-1.912-1.514-3.179-1.809-2.478-0.576-4.988-1.101-7.38-1.946-3.185-1.124-6.117-2.798-8.961-4.649-2.565-1.67-5.173-3.369-7.972-4.566-5.114-2.189-10.419-2.404-15.747-0.526-2.908 1.024-5.376 2.752-7.465 4.92-1.539 1.597-2.71 3.548-4.045 5.34l0.219 0.306" clip-path="url(#c)" fill="#184189"/>
            <path transform="matrix(.21382 0 0 -.21382 17.483 7.593)" d="m0 0c13.768 0 27.391-1e-3 41.015 1e-3 1.277 1e-3 2.557-0.014 3.832 0.044 0.672 0.031 0.936-0.176 0.932-0.863-0.018-3.013-0.015-6.026 7e-3 -9.038 5e-3 -0.62-0.251-0.76-0.825-0.759-13.784 0.03-27.569 0.042-41.353 0.064-2.045 4e-3 -1.579-0.07-1.818 1.752-0.35 2.666-1.014 5.291-1.551 7.932-0.058 0.288-0.156 0.568-0.239 0.867" clip-path="url(#b)" fill="#184189"/>
            <path transform="matrix(.21382 0 0 -.21382 17.457 12.425)" d="m0 0c1.16 2.629 1.516 5.424 1.875 8.217 0.069 0.54 0.016 1.101 0.125 1.63 0.048 0.228 0.363 0.566 0.562 0.57 1.822 0.032 3.645-9e-3 5.468-9e-3 10.869-3e-3 21.737-3e-3 32.606 4e-3 1.46 1e-3 2.922 0.02 4.381 0.076 0.658 0.025 0.91-0.162 0.902-0.87-0.036-2.952-0.025-5.906-4e-3 -8.859 4e-3 -0.578-0.144-0.786-0.772-0.784-10.747 0.031-21.493 0.05-32.24 0.043-4.199-3e-3 -8.398-0.078-12.597-0.116-0.081-1e-3 -0.163 0.051-0.306 0.098" clip-path="url(#a)" fill="#184189"/>
        </g>
        <ellipse transform="scale(1,-1)" cx="37.499" cy="-37.941" rx="36.255" ry="36.255" fill="none" stroke="#cfd0d2" stroke-width="2.2205"/>
    </g>
</svg>
